# xmcd
#
# Track frame offsets:
# 150
# 10561
# 30675
# 56988
# 77412
# 93984
# 109532
# 131169
# 145766
# 162375
# 185344
#
# Disc length: 2749 seconds
#
#
# Revision: 2
# Processed by: cddbd v1.5.2PL0 Copyright (c) Steve Scherf et al.
# Submitted via: FreeRIP 2.945 
#
DISCID=860abb0b
DTITLE=Gackt - DIABOLOS
DYEAR=2005
DGENRE=Rock
TTITLE0=Misty
TTITLE1=
TTITLE2=Noesis
TTITLE3=Ash
TTITLE4=Metamorphoze
TTITLE5=Disper
TTITLE6=Future
TTITLE7=Black Stone
TTITLE8=Storm
TTITLE9=Road
TTITLE10=Todokanai Ai To Shitteitanoni Osaekirezuni Aishitsuzuketa
EXTD=
EXTT0=
EXTT1=
EXTT2=
EXTT3=
EXTT4=
EXTT5=
EXTT6=
EXTT7=
EXTT8=
EXTT9=
EXTT10=
PLAYORDER=
